<svg xmlns:mydata="http://www.w3.org/2000/svg" mydata:contrastcolor="000000" mydata:template="Contrast" mydata:presentation="2.5" mydata:layouttype="undefined" mydata:specialfontid="undefined" mydata:id1="518" mydata:id2="521" mydata:companyname="ansor" mydata:companytagline="" version="1.1" xmlns="http://www.w3.org/2000/svg" xmlns:xlink="http://www.w3.org/1999/xlink" viewBox="0 0 550 470" class="svg-billboard" style="transform: perspective(1400px) rotateY(-35deg) skew(0deg, -18deg) rotateX(0deg);"><g fill="#44d62c" fill-rule="nonzero" stroke="none" stroke-width="1" stroke-linecap="butt" stroke-linejoin="miter" stroke-miterlimit="10" stroke-dasharray="" stroke-dashoffset="0" font-family="none" font-weight="none" font-size="none" text-anchor="none" style="mix-blend-mode: normal"><g data-paper-data="{&quot;isGlobalGroup&quot;:true,&quot;bounds&quot;:{&quot;x&quot;:81.40822646666696,&quot;y&quot;:187.1479342757821,&quot;width&quot;:387.18354706666605,&quot;height&quot;:95.70413144843585}}"><g data-paper-data="{&quot;isPrimaryText&quot;:true}"><path d="M109.97207,187.14793c-2.18671,0 -4.23674,0.82001 -5.7401,2.18671l-8.33681,7.10679c-1.64003,1.36669 -2.59671,3.28006 -2.87005,5.46676l-11.61687,80.9081h17.63031l3.28006,-22.27706h28.70051l3.14339,22.27706h17.63031l-3.69007,-26.5138l-7.79014,-54.3943c-0.27334,-2.18671 -1.36669,-4.10007 -3.00672,-5.46676l-8.20015,-7.10679c-1.64003,-1.36669 -3.69007,-2.18671 -5.7401,-2.18671zM113.25213,204.64158h6.83345l3.28006,2.87005l5.05676,35.53396h-23.64375l5.05676,-35.53396z" data-paper-data="{&quot;glyphName&quot;:&quot;A&quot;,&quot;glyphIndex&quot;:0,&quot;firstGlyphOfWord&quot;:true,&quot;word&quot;:1}" fill="#44d62c"></path><path d="M232.83758,187.14793h-17.49364v57.67436l-35.12396,-53.71095c-2.18671,-3.28006 -6.15011,-4.64675 -9.84017,-3.5534c-3.69007,1.09335 -6.28678,4.51008 -6.28678,8.33681v86.92154h17.49364v-57.67436l35.26063,53.71095c2.59671,3.82673 6.42345,4.64675 9.70351,3.5534c3.82673,-1.09335 6.28678,-4.51008 6.28678,-8.33681z" data-paper-data="{&quot;glyphName&quot;:&quot;N&quot;,&quot;glyphIndex&quot;:1,&quot;word&quot;:1}" fill="#44d62c"></path><path d="M263.58813,187.14793c-2.32337,0 -4.51008,0.95668 -6.15011,2.59671l-8.33681,8.33681c-1.64003,1.64003 -2.59671,3.82673 -2.59671,6.15011v18.587c0,1.91337 0.68335,3.82673 1.91337,5.33009l6.42345,8.20015c1.23002,1.50336 3.00672,2.59671 4.92009,3.14339l31.57056,7.38013l2.59671,3.41673v11.75354l-3.14339,3.28006h-23.50708l-3.28006,-3.28006v-13.53024h-17.49364v17.22031c0,2.32337 0.95668,4.51008 2.59671,6.15011l8.33681,8.33681c1.64003,1.64003 3.82673,2.59671 6.15011,2.59671h30.75055c2.32337,0 4.51008,-0.95668 6.15011,-2.59671l8.47348,-8.33681c1.64003,-1.64003 2.46004,-3.82673 2.46004,-6.15011v-18.587c0,-1.91337 -0.68335,-3.82673 -1.91337,-5.33009l-6.42345,-8.20015c-1.23002,-1.50336 -2.87005,-2.59671 -4.78342,-3.14339l-31.57056,-7.38013l-2.73338,-3.41673v-11.75354l3.28006,-3.28006h23.50708l3.14339,3.28006v13.53024h17.49364v-17.22031c0,-2.32337 -0.82001,-4.51008 -2.46004,-6.15011l-8.47348,-8.33681c-1.64003,-1.64003 -3.82673,-2.59671 -6.15011,-2.59671z" data-paper-data="{&quot;glyphName&quot;:&quot;S&quot;,&quot;glyphIndex&quot;:2,&quot;word&quot;:1}" fill="#44d62c"></path><path d="M344.08623,187.14793c-2.32337,0 -4.51008,0.95668 -6.15011,2.59671l-10.25018,10.25018c-1.64003,1.64003 -2.59671,3.82673 -2.59671,6.15011v57.67436c0,2.32337 0.95668,4.51008 2.59671,6.15011l10.25018,10.25018c1.64003,1.64003 3.82673,2.59671 6.15011,2.59671h26.92381c2.32337,0 4.64675,-0.95668 6.28678,-2.59671l10.25018,-10.25018c1.64003,-1.64003 2.46004,-3.82673 2.46004,-6.15011v-57.67436c0,-2.32337 -0.82001,-4.51008 -2.46004,-6.15011l-10.25018,-10.25018c-1.64003,-1.64003 -3.9634,-2.59671 -6.28678,-2.59671zM347.77629,204.64158h19.68035l5.05676,5.05676v50.4309l-5.05676,5.19343h-19.68035l-5.19343,-5.19343v-50.4309z" data-paper-data="{&quot;glyphName&quot;:&quot;O&quot;,&quot;glyphIndex&quot;:3,&quot;word&quot;:1}" fill="#44d62c"></path><path d="M403.67395,187.14793v95.66837h17.49364v-33.48393h17.08364l3.28006,2.46004l8.88349,31.02388h18.17699l-10.38685,-36.62732l7.92681,-7.79014c1.64003,-1.64003 2.46004,-3.82673 2.46004,-6.15011v-28.01716c0,-2.32337 -0.82001,-4.51008 -2.46004,-6.15011l-8.47348,-8.33681c-1.64003,-1.64003 -3.82673,-2.59671 -6.15011,-2.59671zM421.1676,204.64158h26.78714l3.14339,3.28006v20.63703l-3.14339,3.28006h-26.78714z" data-paper-data="{&quot;glyphName&quot;:&quot;R&quot;,&quot;glyphIndex&quot;:4,&quot;lastGlyphOfWord&quot;:true,&quot;word&quot;:1}" fill="#44d62c"></path></g></g></g></svg>
